<mxfile host="app.diagrams.net" modified="2024-04-26T06:00:09.788Z" agent="Mozilla/5.0 (Windows NT 10.0; Win64; x64) AppleWebKit/537.36 (KHTML, like Gecko) Chrome/124.0.0.0 Safari/537.36" etag="h1fUuCdfkaGfY9PAj0m_" version="24.3.0" type="github">
  <diagram id="0d7cefc2-ccd6-e077-73ed-a8e48b0cddf6" name="Page-1">
    <mxGraphModel dx="1434" dy="772" grid="1" gridSize="10" guides="1" tooltips="1" connect="1" arrows="1" fold="1" page="1" pageScale="1" pageWidth="1169" pageHeight="827" background="none" math="0" shadow="0">
      <root>
        <mxCell id="0" />
        <mxCell id="1" parent="0" />
        <object label="Web Server1" Package="Apache 2.4" id="tYqqfRV4sgVxjDrHHQp--106">
          <mxCell style="image;html=1;image=img/lib/clip_art/computers/Server_Rack_128x128.png;points=[[0,0,0,0,0],[0,0.25,0,0,0],[0,0.5,0,0,0],[0,0.75,0,0,0],[0,1,0,0,0],[0.25,0,0,0,0],[0.25,1,0,0,0],[0.5,0,0,0,0],[0.5,1,0,0,0],[0.75,0,0,0,0],[0.75,1,0,0,0],[1,0,0,0,0],[1,0.25,0,0,0],[1,0.5,0,0,0],[1,0.75,0,0,0],[1,1,0,0,0]];fontSize=16;" vertex="1" parent="1">
            <mxGeometry x="310" y="320" width="80" height="80" as="geometry" />
          </mxCell>
        </object>
        <mxCell id="tYqqfRV4sgVxjDrHHQp--108" value="" style="image;aspect=fixed;html=1;points=[];align=center;fontSize=12;image=img/lib/azure2/databases/Azure_Database_MySQL_Server.svg;" vertex="1" parent="1">
          <mxGeometry x="470" y="60" width="48" height="64" as="geometry" />
        </mxCell>
        <mxCell id="tYqqfRV4sgVxjDrHHQp--109" value="&lt;p style=&quot;margin:0px;margin-top:10px;text-align:center;text-decoration:underline;&quot;&gt;Web Server1&lt;br&gt;&lt;/p&gt;&lt;p style=&quot;margin:0px;margin-top:4px;text-align:center;&quot;&gt;value1&lt;/p&gt;" style="shape=rect;html=1;overflow=fill;whiteSpace=wrap;" vertex="1" parent="1">
          <mxGeometry x="170" y="310" width="120" height="140" as="geometry" />
        </mxCell>
      </root>
    </mxGraphModel>
  </diagram>
</mxfile>
